<?xml version="1.0" standalone="no"?>
<!DOCTYPE svg PUBLIC "-//W3C//DTD SVG 20010904//EN"
 "http://www.w3.org/TR/2001/REC-SVG-20010904/DTD/svg10.dtd">
<svg version="1.0" xmlns="http://www.w3.org/2000/svg"
 width="1024.000000pt" height="1024.000000pt" viewBox="0 0 1024.000000 1024.000000"
 preserveAspectRatio="xMidYMid meet">

<g transform="translate(0.000000,1024.000000) scale(0.100000,-0.100000)"
fill="#000000" stroke="none">
<path d="M5027 8853 c-34 -37 -103 -111 -154 -164 -109 -116 -127 -141 -118
-168 7 -23 43 -36 72 -27 11 3 65 56 122 116 56 61 107 110 112 110 5 0 9
-617 9 -1585 l0 -1585 -788 0 c-875 0 -851 2 -930 -66 -23 -19 -54 -57 -70
-82 l-27 -47 -3 -912 -2 -913 -50 0 -50 0 0 488 c0 373 -3 493 -13 512 -13 25
-13 25 -167 27 -124 1 -154 4 -152 15 2 7 18 54 37 103 54 146 68 202 60 250
-12 80 -76 147 -155 160 -29 5 -40 12 -40 25 0 25 53 33 165 25 108 -8 135 1
135 44 0 15 -22 109 -48 207 -27 98 -60 223 -73 276 l-24 98 -206 0 c-153 0
-209 -3 -217 -12 -11 -15 -30 -76 -101 -338 -69 -255 -66 -235 -42 -259 19
-19 28 -20 154 -14 90 4 136 2 141 -5 11 -18 -5 -42 -28 -42 -35 -1 -100 -35
-128 -68 -63 -75 -61 -143 11 -332 l48 -125 -141 -3 c-113 -2 -144 -6 -158
-19 -17 -15 -18 -46 -18 -512 l1 -496 -88 0 -88 0 0 2195 0 2195 25 48 c29 57
75 101 139 130 46 22 47 22 1119 27 1161 5 1091 2 1092 56 0 51 43 49 -1094
49 l-1061 0 -57 -21 c-81 -31 -165 -90 -204 -143 -70 -97 -64 93 -65 -2366 0
-2035 1 -2225 16 -2274 32 -103 101 -182 204 -230 l56 -26 1443 -3 1442 -2 0
-232 0 -233 -98 98 c-75 75 -104 97 -124 97 -28 0 -48 -23 -48 -55 0 -9 42
-60 93 -113 50 -54 116 -125 146 -160 33 -38 62 -62 74 -62 27 0 326 307 327
335 0 31 -28 65 -55 65 -17 0 -47 -25 -106 -90 -45 -49 -86 -90 -91 -90 -4 0
-8 99 -8 220 l0 220 1433 2 1432 3 68 33 c76 38 132 98 176 192 l26 55 0 2250
0 2250 -26 55 c-34 73 -104 142 -187 182 l-66 33 -286 6 c-395 9 -1418 10
-1878 2 -403 -7 -412 -8 -412 -51 1 -50 -73 -47 1282 -52 1194 -5 1265 -6
1299 -23 60 -30 116 -84 143 -139 l26 -52 0 -2193 0 -2194 -82 3 -83 3 -3 494
c-2 452 -4 496 -19 514 -15 16 -30 19 -103 17 -109 -3 -105 -4 -81 26 31 39
51 118 51 200 0 100 -5 104 -136 104 l-104 0 0 30 c0 24 5 31 28 36 209 46
323 176 338 386 8 115 2 123 -84 115 -97 -9 -189 -44 -238 -89 l-44 -41 0 87
c0 102 -9 126 -50 126 -50 0 -60 -21 -60 -122 l0 -90 -31 30 c-76 75 -292 131
-329 87 -22 -26 -7 -172 24 -240 37 -81 61 -112 127 -160 54 -40 107 -63 182
-79 23 -6 27 -11 27 -41 0 -19 -1 -36 -2 -36 -2 -1 -55 -4 -118 -8 l-115 -6
-3 -94 c-3 -86 0 -98 27 -157 l30 -64 -123 0 c-106 0 -125 -2 -139 -18 -15
-17 -17 -67 -17 -515 l0 -497 -45 0 -45 0 0 903 c0 863 -1 904 -19 944 -24 51
-86 115 -143 145 l-43 23 -802 3 -803 3 0 1582 0 1582 115 -115 c109 -108 116
-114 142 -104 43 15 43 55 0 107 -121 146 -296 317 -324 317 -18 0 -43 -20
-86 -67z m-2343 -3203 l102 0 17 -67 c9 -38 33 -124 52 -193 19 -69 35 -131
35 -137 0 -15 -55 -16 -302 -6 l-166 6 20 71 c89 327 95 342 126 331 8 -3 60
-5 116 -5z m2386 -550 l0 -340 -523 0 c-577 0 -578 0 -705 -64 -132 -66 -228
-165 -263 -270 l-18 -51 -106 -3 -106 -3 3 474 3 473 27 42 c16 23 45 50 65
61 37 20 60 20 831 21 l792 0 0 -340z m1697 329 c38 -14 71 -46 94 -91 18 -35
19 -65 19 -503 l0 -465 -99 0 -99 0 -36 77 c-67 141 -213 255 -381 298 -49 12
-147 15 -572 15 l-513 0 0 340 0 340 779 0 c528 0 789 -3 808 -11z m578 -100
c96 -36 160 -105 181 -195 12 -51 11 -54 -7 -54 -59 0 -147 61 -194 134 -28
45 -56 136 -41 136 3 0 31 -9 61 -21z m555 -16 c0 -91 -119 -222 -224 -247
l-29 -7 6 50 c3 27 15 68 27 90 31 61 141 137 203 140 12 1 17 -7 17 -26z
m-5128 -352 c46 -41 43 -77 -23 -253 l-54 -148 -37 0 c-25 0 -38 5 -38 13 0 8
-23 72 -51 143 -63 158 -69 213 -26 250 25 21 38 24 112 24 79 0 87 -2 117
-29z m5004 -195 c9 -24 -24 -122 -52 -156 -15 -17 -39 -37 -55 -45 -39 -21
-117 -19 -159 4 -46 24 -87 93 -96 159 l-7 52 182 0 c149 0 183 -3 187 -14z
m-2706 -293 l0 -178 -658 0 -658 0 -53 -28 -54 -27 6 43 c11 78 46 154 97 210
64 70 118 106 199 134 65 22 72 22 594 23 l527 0 0 -177z m1201 161 c30 -9 75
-29 100 -45 58 -37 141 -123 167 -175 22 -43 56 -153 50 -159 -2 -3 -24 6 -49
18 -44 22 -45 22 -701 25 l-658 3 0 174 0 175 518 0 c444 0 526 -2 573 -16z
m-3231 -334 l0 -150 -370 0 -370 0 0 150 0 150 370 0 370 0 0 -150z m4890 0
l0 -150 -370 0 -370 0 0 150 0 150 370 0 370 0 0 -150z m-4395 -215 l0 -175
-87 0 -87 0 -3 171 c-2 94 -1 173 1 175 2 2 43 4 90 4 l86 0 0 -175z m3342 5
l-2 -170 -90 0 -90 0 0 170 0 170 92 0 92 0 -2 -170z m-1807 -40 l0 -140 -710
0 -710 0 0 91 c0 97 14 133 63 162 17 9 176 13 657 17 349 3 650 6 668 8 l32
2 0 -140z m1448 116 c48 -26 62 -64 62 -163 l0 -93 -700 0 -700 0 0 135 0 135
658 0 c515 -1 662 -3 680 -14z m-3478 -266 l0 -150 -370 0 -370 0 0 145 0 145
368 3 c202 1 368 3 370 5 1 1 2 -65 2 -148z m4890 -5 l0 -145 -370 0 -370 0 0
145 0 145 370 0 370 0 0 -145z m-4350 -230 l0 -135 -110 0 -110 0 0 135 0 135
110 0 110 0 0 -135z m230 2 l0 -133 -60 -1 -60 -1 0 134 0 134 60 0 60 0 0
-133z m1260 -2 l0 -135 -570 0 -570 0 0 119 c0 66 -3 126 -6 135 -6 14 49 16
570 16 l576 0 0 -135z m1225 0 l0 -130 -555 0 -555 0 -3 133 -3 132 558 -2
558 -3 0 -130z m247 23 c5 -166 7 -161 -61 -152 -31 3 -57 7 -57 8 -1 0 -4 56
-7 123 l-6 122 27 3 c15 2 43 4 64 6 l36 3 4 -113z m336 -26 l3 -133 -113 3
-113 3 -3 133 -3 133 113 -3 113 -3 3 -133z m-4510 -76 l3 -57 -33 3 c-32 3
-33 4 -36 55 -3 47 -1 52 20 56 39 7 43 2 46 -57z m499 24 c1 -14 0 -37 -3
-52 l-6 -28 -189 0 -189 0 0 55 0 55 193 -2 192 -3 2 -25z m173 -26 l0 -55
-31 3 c-30 3 -31 5 -33 56 l-1 52 32 0 33 0 0 -56z m4210 3 c0 -50 -1 -53 -25
-53 -24 0 -25 3 -25 53 0 50 1 53 25 53 24 0 25 -3 25 -53z m500 -2 l0 -55
-187 2 -188 3 -3 53 -3 52 190 0 191 0 0 -55z m170 0 c0 -52 -1 -55 -25 -55
-24 0 -25 3 -25 55 0 52 1 55 25 55 24 0 25 -3 25 -55z m-5132 -233 l-42 -77
-274 2 c-273 2 -275 3 -317 28 -45 26 -105 90 -105 112 0 9 90 12 390 12 l390
1 -42 -78z m1286 11 c-14 -38 -29 -72 -34 -76 -6 -7 -1170 -11 -1177 -4 -1 2
14 35 35 75 l37 72 582 0 582 0 -25 -67z m586 60 c0 -5 -8 -38 -17 -75 l-17
-68 -237 0 -237 0 25 67 c13 36 26 70 29 75 6 10 454 11 454 1z m408 -69 l-3
-76 -165 1 c-90 1 -165 3 -166 4 0 1 8 35 19 75 l20 72 149 0 149 0 -3 -76z
m393 1 c10 -38 19 -71 19 -72 0 -2 -67 -3 -150 -3 l-150 0 0 75 0 76 131 -3
132 -3 18 -70z m586 18 c12 -32 25 -66 29 -75 6 -17 -10 -18 -238 -18 l-244 0
-22 68 c-12 38 -22 71 -22 75 0 4 107 7 238 7 l237 0 22 -57z m551 -8 c42 -85
42 -99 1 -91 -17 3 -118 6 -223 6 l-191 0 -23 58 c-13 31 -26 65 -29 75 -5 16
10 17 214 17 l219 0 32 -65z m724 -11 l37 -74 -309 0 -310 0 -35 70 c-19 38
-35 72 -35 75 0 3 138 5 308 4 l307 0 37 -75z m519 13 c25 -34 49 -68 53 -74
6 -10 -39 -13 -211 -13 l-218 0 -40 67 c-22 36 -41 70 -43 75 -2 4 90 8 205 8
l208 -1 46 -62z m339 53 c0 -22 -78 -95 -125 -116 -60 -28 -115 -32 -115 -8 0
9 -16 38 -35 64 -19 26 -35 53 -35 59 0 8 48 11 155 11 96 0 155 -4 155 -10z"/>
<path d="M3802 5048 c-5 -7 -11 -22 -13 -33 -3 -11 -15 -22 -29 -25 -43 -10
-34 -70 11 -70 12 0 19 -9 21 -27 5 -48 78 -40 78 8 0 12 9 19 28 21 23 3 27
8 27 33 0 24 -5 31 -23 33 -14 2 -27 14 -33 30 -16 41 -47 54 -67 30z"/>
<path d="M6366 5038 c-9 -12 -16 -28 -16 -35 0 -6 -10 -13 -22 -15 -18 -2 -23
-10 -23 -33 0 -23 5 -30 25 -35 18 -4 26 -14 28 -33 3 -23 8 -27 38 -27 20 0
35 5 36 13 0 6 1 19 2 27 1 8 10 16 21 18 43 8 55 72 14 72 -11 0 -22 8 -26
18 -9 25 -34 52 -49 52 -7 0 -20 -10 -28 -22z"/>
<path d="M2620 4341 c-27 -52 -1 -101 54 -101 58 0 89 66 48 103 -26 24 -88
22 -102 -2z"/>
<path d="M7507 4342 c-51 -56 14 -132 83 -97 58 30 32 115 -37 115 -16 0 -37
-8 -46 -18z"/>
<path d="M2630 3952 c-16 -13 -23 -29 -22 -53 1 -40 23 -59 67 -59 63 0 88 71
39 109 -33 26 -55 26 -84 3z"/>
<path d="M7507 3942 c-49 -54 14 -132 80 -100 35 16 44 69 17 99 -22 24 -76
25 -97 1z"/>
<path d="M6474 3665 c0 -66 1 -92 3 -57 2 34 2 88 0 120 -2 31 -3 3 -3 -63z"/>
<path d="M2329 3393 c-13 -16 -12 -17 4 -4 16 13 21 21 13 21 -2 0 -10 -8 -17
-17z"/>
<path d="M2297 3332 c1 -3 -4 -14 -14 -24 -9 -10 -11 -18 -6 -18 18 0 37 30
26 39 -5 5 -8 6 -6 3z"/>
<path d="M4497 8222 c-33 -37 -13 -92 33 -92 54 0 80 58 42 93 -24 22 -55 21
-75 -1z"/>
<path d="M4738 7925 c-15 -34 12 -75 50 -75 35 0 52 16 52 50 0 35 -17 50 -57
50 -26 0 -36 -6 -45 -25z"/>
<path d="M2532 7638 c-9 -9 -12 -193 -12 -765 0 -734 0 -753 19 -763 13 -7
325 -10 940 -10 823 0 921 2 935 16 14 14 16 96 16 759 0 663 -2 745 -16 759
-14 14 -113 16 -943 16 -708 0 -930 -3 -939 -12z m878 -763 l0 -665 -389 0
c-215 0 -392 4 -395 8 -3 5 -2 304 1 665 l6 657 389 0 388 0 0 -665z m918 -2
l3 -663 -406 0 -405 0 0 665 0 665 403 -2 402 -3 3 -662z"/>
<path d="M2964 7121 c-81 -76 -99 -104 -85 -129 6 -11 21 -22 35 -24 20 -4 37
8 92 62 36 37 71 74 76 84 12 22 -15 66 -40 66 -9 -1 -45 -27 -78 -59z"/>
<path d="M2785 6920 c-11 -4 -37 -26 -58 -49 -29 -32 -37 -49 -37 -79 0 -20 4
-43 9 -50 12 -20 55 5 109 61 46 50 53 84 24 110 -21 19 -19 19 -47 7z"/>
<path d="M3242 6888 c-17 -17 -15 -64 4 -83 24 -23 66 -15 83 16 13 24 13 29
-2 53 -19 28 -63 36 -85 14z"/>
<path d="M3625 6876 c-27 -41 10 -88 61 -78 59 11 48 94 -13 100 -25 2 -35 -2
-48 -22z"/>
<path d="M5826 7628 c-13 -18 -15 -101 -16 -604 0 -517 2 -584 16 -598 11 -12
36 -16 90 -16 l74 0 0 -100 0 -100 -80 0 c-67 0 -83 -3 -100 -20 -11 -11 -20
-27 -20 -35 0 -8 9 -24 20 -35 20 -20 33 -20 943 -20 882 0 925 1 940 18 10
10 17 27 17 38 0 41 -16 49 -105 53 l-85 3 0 99 0 99 70 0 c120 0 110 -57 109
623 0 516 -2 584 -16 600 -15 16 -72 17 -929 17 l-913 0 -15 -22z m1762 -131
l3 -37 -833 2 -833 3 -3 23 c-8 55 -61 52 835 50 l828 -3 3 -38z m-10 -156 c8
-4 12 -21 10 -37 l-3 -29 -832 -3 -833 -2 0 34 c0 25 5 36 18 39 33 8 1627 7
1640 -2z m3 -186 c3 -2 3 -20 1 -40 l-4 -35 -829 0 -829 0 0 40 0 40 828 0
c456 0 831 -2 833 -5z m7 -222 l-3 -38 -480 -1 c-264 0 -639 2 -832 4 l-353 4
0 27 c0 15 3 31 7 34 3 4 379 7 835 7 l829 0 -3 -37z m-3 -183 l0 -35 -832 -3
-833 -2 0 35 0 34 103 4 c56 1 431 3 832 3 l730 -1 0 -35z m0 -190 l0 -35
-830 0 -830 0 -3 23 c-8 55 -61 52 835 50 l828 -3 0 -35z m-885 -250 l0 -100
-300 0 -300 0 0 100 0 100 300 0 300 0 0 -100z m710 0 l0 -100 -300 0 -300 0
0 100 0 100 300 0 300 0 0 -100z"/>
<path d="M5379 6969 c-27 -27 -22 -69 12 -88 24 -13 29 -13 53 2 34 22 36 69
4 91 -30 21 -44 20 -69 -5z"/>
<path d="M4756 6734 c-9 -9 -16 -32 -16 -54 0 -37 -1 -38 -45 -44 -37 -6 -46
-12 -51 -32 -8 -33 11 -54 51 -54 30 0 33 -3 39 -42 4 -23 12 -48 18 -55 27
-33 78 2 78 54 0 33 14 43 56 43 16 0 28 8 33 23 12 32 -3 54 -46 64 -33 8
-38 13 -44 45 -10 63 -41 85 -73 52z"/>
<path d="M5431 6577 c-6 -8 -14 -31 -19 -52 -7 -35 -12 -40 -45 -48 -40 -10
-61 -35 -51 -61 6 -16 24 -23 74 -28 21 -3 26 -9 28 -38 2 -19 8 -41 14 -47
25 -30 73 -2 80 47 2 19 13 28 47 40 81 28 77 76 -6 89 -35 6 -38 9 -43 46 -3
22 -9 46 -13 53 -11 16 -52 16 -66 -1z"/>
<path d="M4736 6224 c-9 -8 -16 -24 -16 -35 0 -24 34 -59 58 -59 41 0 69 69
40 98 -17 17 -64 15 -82 -4z"/>
<path d="M5424 5952 c-23 -15 -35 -51 -24 -72 26 -48 93 -45 106 5 12 49 -42
94 -82 67z"/>
<path d="M4732 5878 c-7 -7 -12 -24 -12 -38 0 -35 17 -50 57 -50 45 0 64 37
39 75 -18 27 -63 34 -84 13z"/>
<path d="M6667 5862 c-20 -22 -22 -63 -5 -80 20 -20 76 -15 88 7 16 31 12 59
-12 75 -29 21 -51 20 -71 -2z"/>
<path d="M4060 5850 c-22 -22 -26 -63 -7 -77 45 -36 105 -6 92 45 -6 29 -30
52 -52 52 -7 0 -22 -9 -33 -20z"/>
<path d="M7281 5841 c-18 -32 -13 -60 15 -77 50 -33 107 14 80 67 -16 33 -80
40 -95 10z"/>
<path d="M6790 2190 c-26 -26 -26 -76 -1 -90 69 -36 135 36 81 90 -11 11 -29
20 -40 20 -11 0 -29 -9 -40 -20z"/>
<path d="M2881 2036 c-143 -47 -188 -238 -83 -349 88 -93 235 -90 316 5 66 77
71 174 13 261 -52 78 -154 112 -246 83z m132 -116 c59 -47 56 -143 -7 -181
-47 -29 -82 -25 -122 15 -28 28 -34 42 -34 76 0 34 6 48 34 76 40 40 89 46
129 14z"/>
<path d="M3380 2040 c-144 -39 -206 -215 -116 -333 123 -163 386 -79 386 123
0 54 -32 130 -67 162 -50 46 -137 66 -203 48z m137 -135 c33 -37 32 -103 -2
-143 -32 -38 -72 -48 -119 -28 -73 31 -86 129 -24 181 27 23 39 26 77 22 33
-4 52 -12 68 -32z"/>
<path d="M3751 2024 c-20 -25 -21 -37 -17 -193 2 -91 7 -174 11 -184 4 -9 19
-20 33 -24 19 -5 30 0 45 18 17 21 19 37 15 131 -2 60 -1 108 2 108 3 0 20
-21 39 -46 62 -81 99 -82 158 -4 20 27 40 47 45 44 5 -3 8 -55 7 -115 -1 -118
6 -139 47 -139 47 0 54 30 54 217 0 160 -2 175 -20 193 -33 33 -58 24 -134
-50 -40 -38 -77 -70 -82 -70 -5 0 -32 27 -59 59 -73 86 -109 100 -144 55z"/>
<path d="M5006 2037 c-10 -8 -18 -24 -18 -38 0 -13 38 -104 85 -201 77 -160
88 -178 111 -178 32 0 63 38 106 133 19 42 38 76 43 77 4 0 7 -12 7 -27 1 -53
42 -116 100 -150 46 -28 64 -33 117 -33 35 0 72 6 83 12 16 10 24 10 40 0 13
-8 61 -12 139 -12 130 0 151 8 151 55 0 40 -35 55 -127 55 -46 0 -83 3 -83 8
0 4 5 25 10 47 7 27 6 58 -1 95 -23 114 -152 192 -267 161 -26 -7 -54 -19 -64
-28 -16 -14 -19 -13 -42 13 -24 28 -26 28 -53 14 -20 -11 -45 -48 -89 -134
-34 -65 -64 -115 -67 -110 -3 5 -26 56 -51 114 -63 140 -84 161 -130 127z
m612 -113 c27 -19 52 -65 52 -96 0 -41 -36 -86 -77 -97 -59 -17 -72 -14 -109
23 -30 30 -34 40 -34 84 0 44 4 54 31 76 36 30 101 35 137 10z"/>
<path d="M6004 2036 c-17 -13 -19 -29 -22 -132 -4 -132 5 -177 45 -225 73 -87
236 -76 295 19 20 33 23 52 26 174 4 127 3 137 -17 157 -25 25 -54 27 -75 5
-13 -12 -16 -40 -16 -140 0 -119 -1 -126 -25 -149 -30 -31 -75 -33 -101 -4
-16 18 -19 40 -22 148 -3 97 -7 130 -19 144 -19 21 -43 22 -69 3z"/>
<path d="M7094 2032 c-81 -38 -124 -110 -124 -207 0 -74 27 -127 88 -169 58
-41 158 -49 219 -17 118 59 156 196 87 308 -55 88 -179 127 -270 85z m140
-103 c27 -13 56 -64 56 -99 0 -11 -7 -34 -15 -50 -36 -69 -106 -81 -161 -26
-90 90 5 227 120 175z"/>
<path d="M7486 2031 c-14 -16 -16 -42 -14 -207 l3 -189 27 -9 c22 -8 32 -6 48
9 17 16 20 30 20 117 0 54 3 98 8 98 4 0 31 -31 59 -68 76 -97 141 -162 163
-162 46 0 50 19 50 221 l0 189 -25 12 c-19 8 -31 8 -50 0 -24 -11 -25 -14 -25
-119 l-1 -108 -32 36 c-17 20 -54 64 -82 99 -85 107 -112 122 -149 81z"/>
<path d="M2362 2028 c-17 -17 -17 -379 0 -396 17 -17 63 -15 78 3 6 8 14 32
17 55 5 33 9 40 29 40 15 0 29 -11 44 -35 42 -67 110 -97 140 -60 15 18 0 62
-38 106 l-24 29 32 37 c30 34 32 40 28 101 -4 59 -7 67 -41 98 l-37 34 -108 0
c-71 0 -112 -4 -120 -12z m198 -109 c7 -11 9 -32 6 -45 -6 -21 -12 -24 -56
-24 -28 0 -51 3 -51 8 -13 73 -8 82 45 82 36 0 48 -4 56 -21z"/>
<path d="M4626 2024 c-13 -13 -16 -44 -16 -185 0 -167 0 -170 25 -194 23 -24
30 -25 137 -25 124 0 158 12 158 54 0 43 -28 56 -123 56 -86 0 -87 0 -87 25 0
24 3 25 53 25 61 0 97 20 97 54 0 34 -18 45 -85 48 -57 3 -60 4 -63 31 l-3 27
90 0 c97 0 121 11 121 54 0 41 -17 46 -156 46 -107 0 -136 -3 -148 -16z"/>
<path d="M6402 2028 c-16 -16 -15 -50 1 -71 6 -9 30 -17 52 -19 l40 -3 3 -145
c2 -153 8 -170 53 -170 42 0 49 24 49 176 l0 144 50 0 c41 0 52 4 65 24 12 18
13 30 6 50 l-11 26 -148 0 c-102 0 -152 -4 -160 -12z"/>
<path d="M6792 2028 c-8 -8 -12 -66 -12 -195 l0 -183 25 -16 c32 -21 71 -7 81
30 3 13 4 97 2 186 -3 146 -5 163 -22 176 -24 17 -58 18 -74 2z"/>
</g>
</svg>
